# xmcd
#
# Track frame offsets:
#	150
#	14262
#	29630
#	43909
#	57921
#	71750
#	88156
#	104031
#	119549
#	139421
#	155744
#	168239
#	179617
#	193031
#	207750
#	222882
#	239060
#	253855
#	268370
#	279991
#	300196
#	315136
#	328145
#	342860
#
# Disc length: 4774 seconds
#
# Revision: 0
# Processed by: cddbd v1.5.2PL0 Copyright (c) Steve Scherf et al.
# Submitted via: dBpowerAMP V4.0
#
DISCID=7a12a418
DTITLE=Varios - La Z
DYEAR=2006
DGENRE=Undefined
TTITLE0=Intro
TTITLE1=ABEJA REINA - LA ORIGINAL BANDA EL LIMON
TTITLE2=MI CREDO - K PAZ DE LA SIERRA
TTITLE3=RECOSTADA EN LA CAMA - EL CHAPO DE SINALOA
TTITLE4=BELLEZA DE CANTINA - CARDENALES DE NUEVO LEON
TTITLE5=DUEÑO DE TI - SERGIO VEGA
TTITLE6=UN VIERNES SIN TU AMOR - VAGON CHICANO
TTITLE7=VOLVERE - K PAZ DE LA SIERRA
TTITLE8=ALIADO DEL TIEMPO - MARIANO BARBA
TTITLE9=LA SORPRESA - LOS TIGRES DEL NORTE
TTITLE10=SI LA QUIERES - HOROSCOPOS DE DURANGO
TTITLE11=MI MEDIA NARANJA - LA ARROLLADORA BANDA EL LIMON
TTITLE12=HAY AMOR - EL RECODO
TTITLE13=ERES DIVINA - PATRULLA 81
TTITLE14=LAGRIMILLAS TONTAS - MONTEZ DE DURANGO
TTITLE15=NO TE APARTES DE MI - EL TRONO DE MEXICO
TTITLE16=PARA QUE REGRESES - EL CHAPO DE SINALOA
TTITLE17=PERO TE VAS A ARREPENTIR - KPAZ CON JOSE MANUEL
TTITLE18=TAL VEZ - LOS PRIMOS DE DURANGO
TTITLE19=SOLAMENTE - CUISILLOS
TTITLE20=COSAS DEL AMOR - SERGIO VEGA
TTITLE21=MUÑECA OJOS DE MIEL - BETO TERRAZAS
TTITLE22=TE QUIERO PARA MI - LA DINASTIA
TTITLE23=ME QUEDE SIN NADA - LA AUTORIDAD DE LA SIERRA
EXTD=
EXTT0=
EXTT1=
EXTT2=
EXTT3=
EXTT4=
EXTT5=
EXTT6=
EXTT7=
EXTT8=
EXTT9=
EXTT10=
EXTT11=
EXTT12=
EXTT13=
EXTT14=
EXTT15=
EXTT16=
EXTT17=
EXTT18=
EXTT19=
EXTT20=
EXTT21=
EXTT22=
EXTT23=
PLAYORDER=
